<?xml version="1.0" encoding="UTF-8" standalone="no"?>
<svg width="200px" height="200px" viewBox="0 0 200 200" version="1.1" xmlns="http://www.w3.org/2000/svg" xmlns:xlink="http://www.w3.org/1999/xlink">
    <!-- Generator: Sketch 39.1 (31720) - http://www.bohemiancoding.com/sketch -->
    <title>middleman-logo</title>
    <desc>Created with Sketch.</desc>
    <defs></defs>
    <g id="Page-1" stroke="none" stroke-width="1" fill="none" fill-rule="evenodd">
        <g id="middleman-logo">
            <polygon id="Shape" fill-opacity="0.5" fill="#ECC561" points="-4.16333634e-17 0 200 0 200 200 -4.16333634e-17 200"></polygon>
            <path d="M177.644711,66.08 L177.644711,134.92 L160.998004,137.08 L160.998004,93.44 L144.710579,124.2 L144.351297,124.2 L127.185629,93.32 L127.185629,140.92 L107.58483,142.68 L107.58483,56.6 L128.582834,59.56 L144.670659,90.2 L159.96008,63.84 L177.644711,66.08 Z M177.245509,46.28 L100.998004,30.88 L100.998004,41.76 L177.245509,54.72 L177.245509,46.28 Z" id="Shape" fill="#FFFFFF"></path>
            <path d="M23.5129741,65.96 L23.5129741,134.28 L40.1596806,137.12 L40.1596806,93.88 L56.4471058,124.64 L56.8063872,124.64 L73.9720559,93.76 L73.9720559,140.24 L93.6127745,143.16 L93.6127745,56.48 L72.5748503,59.44 L56.4870259,90.68 L41.1976048,63.16 L23.5129741,65.96 Z M23.1536926,46.28 L100.998004,30.88 L100.998004,42.32 L23.1536926,55.24 L23.1536926,46.28 Z" id="Shape" fill="#000000" opacity="0.25"></path>
            <polygon id="Shape" fill="#FFFFFF" points="177.245509 152.24 100.998004 167.6 100.998004 156.2 177.245509 143.8"></polygon>
            <polygon id="Shape" fill="#000000" opacity="0.25" points="23.1536926 152.24 100.998004 167.6 100.998004 156.2 23.1536926 143.24"></polygon>
        </g>
    </g>
</svg>