<?xml version="1.0" encoding="UTF-8" standalone="no"?>
<svg width="169px" height="150px" viewBox="0 0 169 150" version="1.1" xmlns="http://www.w3.org/2000/svg" xmlns:xlink="http://www.w3.org/1999/xlink">
    <!-- Generator: Sketch 39.1 (31720) - http://www.bohemiancoding.com/sketch -->
    <title>middleman-logo</title>
    <desc>Created with Sketch.</desc>
    <defs></defs>
    <g id="Page-1" stroke="none" stroke-width="1" fill="none" fill-rule="evenodd">
        <g id="middleman-logo">
            <g id="Page-1">
                <g id="middleman-logo">
                    <g id="Page-1">
                        <g id="middleman-logo">
                            <path d="M168.092077,39.2173913 L168.092077,114.043478 L149.99783,116.391304 L149.99783,68.9565217 L132.294108,102.391304 L131.903584,102.391304 L113.245249,68.826087 L113.245249,120.565217 L91.9400326,122.478261 L91.9400326,28.9130435 L114.76395,32.1304348 L132.250716,65.4347826 L148.869652,36.7826087 L168.092077,39.2173913 L168.092077,39.2173913 L168.092077,39.2173913 Z M167.658162,17.6956522 L84.7804391,0.956521739 L84.7804391,12.7826087 L167.658162,26.8695652 L167.658162,17.6956522 L167.658162,17.6956522 L167.658162,17.6956522 Z" id="Shape" fill="#FFFFFF"></path>
                            <path d="M0.557580543,39.0869565 L0.557580543,113.347826 L18.6518267,116.434783 L18.6518267,69.4347826 L36.3555498,102.869565 L36.746073,102.869565 L55.4044086,69.3043478 L55.4044086,119.826087 L76.7530158,123 L76.7530158,28.7826087 L53.8857068,32 L36.3989412,65.9565217 L19.7800052,36.0434783 L0.557580543,39.0869565 L0.557580543,39.0869565 L0.557580543,39.0869565 Z M0.167057174,17.6956522 L84.7804391,0.956521739 L84.7804391,13.3913043 L0.167057174,27.4347826 L0.167057174,17.6956522 L0.167057174,17.6956522 L0.167057174,17.6956522 Z" id="Shape" fill="#000000" opacity="0.25"></path>
                            <polygon id="Shape" fill="#FFFFFF" points="167.658162 132.869565 84.7804391 149.565217 84.7804391 137.173913 167.658162 123.695652"></polygon>
                            <polygon id="Shape" fill="#000000" opacity="0.25" points="0.167057174 132.869565 84.7804391 149.565217 84.7804391 137.173913 0.167057174 123.086957"></polygon>
                        </g>
                    </g>
                </g>
            </g>
        </g>
    </g>
</svg>