<?xml version="1.0" encoding="UTF-8" standalone="no"?>
<svg width="134px" height="150px" viewBox="0 0 134 150" version="1.1" xmlns="http://www.w3.org/2000/svg" xmlns:xlink="http://www.w3.org/1999/xlink">
    <!-- Generator: Sketch 39.1 (31720) - http://www.bohemiancoding.com/sketch -->
    <title>Shape</title>
    <desc>Created with Sketch.</desc>
    <defs></defs>
    <g id="Page-1" stroke="none" stroke-width="1" fill="none" fill-rule="evenodd">
        <path d="M66.5594843,150 C64.4924197,150 62.5631593,149.448782 60.7717029,148.484152 L42.4437295,137.597611 C39.6876424,136.081763 41.0656866,135.530546 41.8925116,135.254937 C45.6132284,134.014699 46.3022499,133.739089 50.1607716,131.53422 C50.5741835,131.258612 51.1254014,131.396417 51.5388145,131.672025 L65.5948544,140.078088 C66.1460725,140.353697 66.8350937,140.353697 67.2485071,140.078088 L122.232429,108.245292 C122.783647,107.969682 123.059255,107.418466 123.059255,106.729444 L123.059255,43.2016539 C123.059255,42.5126313 122.783647,41.9614146 122.232429,41.6858062 L67.2485071,9.99081299 C66.697289,9.71520467 66.0082678,9.71520467 65.5948544,9.99081299 L10.6109315,41.6858062 C10.0597148,41.9614146 9.78410642,42.650436 9.78410642,43.2016539 L9.78410642,106.729444 C9.78410642,107.280661 10.0597148,107.969682 10.6109315,108.245292 L25.6316025,116.926964 C33.7620576,121.061092 38.8608174,116.237942 38.8608174,111.414791 L38.8608174,48.7138257 C38.8608174,47.8870006 39.5498389,47.0601744 40.5144687,47.0601744 L47.5424893,47.0601744 C48.3693155,47.0601744 49.1961405,47.7491958 49.1961405,48.7138257 L49.1961405,111.414791 C49.1961405,122.301332 43.2705557,128.64033 32.9352314,128.64033 C29.7657325,128.64033 27.2852549,128.64033 20.2572343,125.195222 L5.78778125,116.926964 C2.20486916,114.859898 5.68434189e-14,111.001378 5.68434189e-14,106.867247 L5.68434189e-14,43.3394575 C5.68434189e-14,39.2053288 2.20486916,35.3468071 5.78778125,33.2797427 L60.7717029,1.44694471 C64.2168115,-0.482314905 68.9021583,-0.482314905 72.3472668,1.44694471 L127.331188,33.2797427 C130.9141,35.3468071 133.11897,39.2053288 133.11897,43.3394575 L133.11897,106.867247 C133.11897,111.001378 130.9141,114.859898 127.331188,116.926964 L72.3472668,148.75976 C70.5558094,149.586587 68.4887453,150 66.5594843,150 L66.5594843,150 L66.5594843,150 Z M83.5094162,106.316031 C59.39366,106.316031 54.432705,95.2916852 54.432705,85.9209916 C54.432705,85.0941658 55.1217267,84.2673405 56.0863562,84.2673405 L63.2521815,84.2673405 C64.0790068,84.2673405 64.768028,84.818557 64.768028,85.6453833 C65.8704626,92.9490123 69.0399629,96.5319245 83.6472198,96.5319245 C95.2227831,96.5319245 100.183738,93.9136423 100.183738,87.712448 C100.183738,84.1295358 98.8056953,81.5112536 80.7533288,79.7197973 C65.732659,78.2039497 56.361966,74.8966459 56.361966,62.9076706 C56.361966,51.745521 65.732659,45.1309136 81.4423516,45.1309136 C99.0813035,45.1309136 107.762975,51.1943043 108.86541,64.4235182 C108.86541,64.8369311 108.727605,65.2503446 108.451997,65.6637575 C108.176389,65.9393657 107.762975,66.214974 107.349562,66.214974 L100.183738,66.214974 C99.494717,66.214974 98.8056953,65.6637575 98.6678906,64.9747358 C97.0142394,57.3954985 92.7423045,54.91502 81.4423516,54.91502 C68.7643536,54.91502 67.2485071,59.3247585 67.2485071,62.6320619 C67.2485071,66.6283875 69.0399629,67.8686267 86.1276983,70.073496 C103.077629,72.2783647 111.070279,75.447864 111.070279,87.2990345 C110.932475,99.4258149 101.010565,106.316031 83.5094162,106.316031 L83.5094162,106.316031 L83.5094162,106.316031 Z" id="Shape" fill="#539E43"></path>
    </g>
</svg>