<?xml version="1.0" encoding="UTF-8" standalone="no"?>
<svg width="200px" height="150px" viewBox="0 0 200 150" version="1.1" xmlns="http://www.w3.org/2000/svg" xmlns:xlink="http://www.w3.org/1999/xlink">
    <!-- Generator: Sketch 39.1 (31720) - http://www.bohemiancoding.com/sketch -->
    <title>Group</title>
    <desc>Created with Sketch.</desc>
    <defs></defs>
    <g id="Page-1" stroke="none" stroke-width="1" fill="none" fill-rule="evenodd">
        <g id="Group" fill="#CD6799">
            <path d="M172.094718,86.3387977 C165.136612,86.3752273 159.089253,88.0510016 154.025501,90.5282328 C152.167577,86.8488164 150.309654,83.5701273 149.981785,81.1657563 C149.617487,78.3606555 149.180328,76.6484517 149.617487,73.2969034 C150.054645,69.9453552 152.021858,65.1730419 151.985428,64.8087432 C151.948998,64.4444445 151.54827,62.7322405 147.540984,62.6958105 C143.533698,62.6593807 140.072859,63.4608379 139.672131,64.5173042 C139.271402,65.5737705 138.506375,67.9781421 137.996357,70.4553734 C137.304189,74.0983606 129.981785,87.103825 125.79235,93.9162109 C124.444445,91.2568305 123.278688,88.9253188 123.02368,87.0673953 C122.65938,84.2622953 122.222222,82.5500914 122.65938,79.198543 C123.096539,75.8469945 125.063752,71.0746813 125.027323,70.7103825 C124.990892,70.3460838 124.590164,68.6338798 120.582878,68.5974499 C116.575592,68.56102 113.114754,69.3624773 112.714026,70.4189435 C112.313297,71.4754098 111.876138,73.9526412 111.038252,76.3570127 C110.200364,78.7613844 100.473588,100.473588 97.9234977,106.083789 C96.6120219,108.961748 95.4826961,111.25683 94.6812383,112.823315 L94.6812383,112.823315 C94.6812383,112.823315 94.6448086,112.932605 94.5355188,113.114754 C93.8433516,114.462659 93.4426227,115.191257 93.4426227,115.191257 C93.4426227,115.191257 93.4426227,115.191257 93.4426227,115.227687 C92.896175,116.211293 92.3132969,117.12204 92.0218578,117.12204 C91.8032789,117.12204 91.40255,114.499089 92.094718,110.928962 C93.5519125,103.387978 97.0127508,91.6575594 96.9763203,91.2568305 C96.9763203,91.0382516 97.6320586,88.9981781 94.7176688,87.9417125 C91.8761383,86.8852461 90.8561023,88.6338797 90.601093,88.6338797 C90.3460836,88.6338797 90.1639344,89.2531875 90.1639344,89.2531875 C90.1639344,89.2531875 93.3333336,76.0655738 84.1165758,76.0655738 C78.3606555,76.0655738 70.4189435,82.3679414 66.4845173,88.0510016 C64.0072859,89.398907 58.7249545,92.2768672 53.0783242,95.3734063 C50.9289617,96.5755922 48.7067395,97.7777781 46.6302368,98.9071039 C46.4845173,98.7613844 46.3387978,98.5792352 46.1930784,98.4335156 C35.0455373,86.5209469 14.4262295,78.1056466 15.3005465,62.1129326 C15.6284153,56.284153 17.6320583,40.9836066 54.8998178,22.4043716 C85.5737703,7.2859745 109.981785,11.4754098 114.20765,20.7650273 C120.255009,34.0255009 101.129326,58.6520947 69.435337,62.2222222 C57.3406193,63.5701275 51.0018215,58.9071038 49.3989071,57.1584699 C47.723133,55.3369763 47.4681238,55.2276867 46.848816,55.5919854 C45.8287796,56.1384335 46.4845173,57.7777778 46.848816,58.7249545 C47.7959927,61.2021858 51.6939891,65.5737705 58.287796,67.723133 C64.1165756,69.6174863 78.2877961,70.6739527 95.4462656,64.0437159 C114.644809,56.6120219 129.653916,35.9562841 125.245902,18.6520947 C120.837887,1.09289617 91.6939891,-4.69945355 64.1165756,5.10018215 C47.723133,10.9289617 29.9453552,20.1092896 17.1584699,32.0582878 C1.96721312,46.265938 -0.43715847,58.6156648 0.546448087,63.7887067 C4.08014572,82.1493625 29.3989071,94.0983609 39.5264116,102.95082 C39.0163934,103.242259 38.5428051,103.497268 38.1420765,103.715847 C33.0783242,106.229508 13.7704918,116.320583 8.96174867,126.994535 C3.49726776,139.089253 9.83606555,147.759563 14.0255009,148.925319 C27.0309654,152.531876 40.4007286,146.047359 47.5774135,135.336977 C54.7540984,124.626594 53.8797814,110.710383 50.564663,104.335155 C50.5282331,104.262295 50.4918033,104.189435 50.4189435,104.116576 C51.7304189,103.351548 53.0783242,102.550091 54.3897996,101.785064 C56.9763205,100.255009 59.5264116,98.8342438 61.712204,97.6684883 C60.4735884,101.056466 59.5628416,105.100182 59.125683,110.928962 C58.579235,117.777778 61.3843352,126.666666 65.0637523,130.163934 C66.7030966,131.693989 68.6338798,131.730419 69.8724955,131.730419 C74.1712204,131.730419 76.1020037,128.160291 78.2513664,123.934427 C80.8743172,118.761384 83.2422586,112.750455 83.2422586,112.750455 C83.2422586,112.750455 80.2914391,128.998178 88.3060109,128.998178 C91.2204008,128.998178 94.1712203,125.209472 95.4826961,123.278688 L95.4826961,123.315119 C95.4826961,123.315119 95.5555555,123.205829 95.701275,122.95082 C95.9927141,122.477231 96.1748633,122.185792 96.1748633,122.185792 L96.1748633,122.112933 C97.3406195,120.072859 99.9635703,115.446266 103.861566,107.759563 C108.888889,97.8506375 113.734062,85.4644813 113.734062,85.4644813 C113.734062,85.4644813 114.17122,88.4881602 115.664845,93.5154828 C116.539163,96.4663023 118.360655,99.7085609 119.817851,102.84153 C118.652095,104.480874 117.923498,105.391621 117.923498,105.391621 C117.923498,105.391621 117.923498,105.391621 117.959927,105.428051 C117.012751,106.666666 115.992714,108.014572 114.863388,109.326048 C110.892532,114.06193 106.156648,119.489982 105.500911,121.056466 C104.735884,122.91439 104.918033,124.262295 106.375227,125.355191 C107.431694,126.156648 109.326048,126.265938 111.25683,126.156648 C114.826958,125.901639 117.34062,125.027323 118.579235,124.480874 C120.510018,123.788707 122.76867,122.732241 124.881603,121.165756 C128.779599,118.287796 131.147541,114.17122 130.928962,108.74317 C130.819672,105.75592 129.836066,102.76867 128.63388,99.9635703 C128.998178,99.4535516 129.326048,98.9435336 129.690346,98.4335156 C135.846995,89.4353367 140.619308,79.5628414 140.619308,79.5628414 C140.619308,79.5628414 141.056466,82.5865211 142.550091,87.613843 C143.278688,90.1639344 144.772313,92.9326047 146.083789,95.6284156 C140.291439,100.327869 136.721312,105.79235 135.446266,109.362477 C133.151184,115.992714 134.936248,118.979963 138.324226,119.672131 C139.85428,120 142.040073,119.271402 143.642988,118.579235 C145.68306,117.923498 148.087432,116.794171 150.382513,115.118397 C154.28051,112.240437 158.032787,108.233152 157.814208,102.8051 C157.704918,100.327869 157.04918,97.8870672 156.138434,95.5191258 C161.056466,93.4790531 167.395264,92.3497266 175.482696,93.2969031 C192.823315,95.3369766 196.247723,106.156648 195.591985,110.710383 C194.936248,115.264116 191.29326,117.741348 190.091075,118.506375 C188.888889,119.271402 188.48816,119.526412 188.59745,120.072859 C188.74317,120.874317 189.326048,120.837887 190.346084,120.692167 C191.766848,120.437159 199.453552,117.012751 199.781421,108.63388 C200.327869,97.9234977 190.127505,86.2295078 172.094718,86.3387977 L172.094718,86.3387977 L172.094718,86.3387977 Z M38.3242259,131.43898 C32.568306,137.704918 24.5537341,140.072859 21.0928962,138.069216 C17.3770492,135.919854 18.8342441,126.666666 25.9016394,120.03643 C30.2003643,115.992714 35.7377049,112.240438 39.417122,109.945355 C40.2550091,109.435337 41.4936248,108.70674 42.9872495,107.795993 C43.2422587,107.650273 43.3879781,107.577413 43.3879781,107.577413 L43.3879781,107.577413 C43.6794171,107.395264 43.9708561,107.213115 44.2622951,107.030966 C46.848816,116.502732 44.3715847,124.845173 38.3242259,131.43898 L38.3242259,131.43898 L38.3242259,131.43898 Z M80.2185789,102.95082 C78.2149359,107.832423 74.0255009,120.327869 71.4754098,119.635702 C69.2896175,119.052823 67.9417122,109.581056 71.0382513,100.218579 C72.6047359,95.5191258 75.9198543,89.908925 77.8506375,87.7231328 C80.9836063,84.2258648 84.4444445,83.0601094 85.2823312,84.4808742 C86.3387977,86.3387977 81.4571945,99.8907102 80.2185789,102.95082 L80.2185789,102.95082 L80.2185789,102.95082 Z M114.790528,119.489982 C113.952641,119.927141 113.151184,120.218579 112.786885,120 C112.531876,119.85428 113.151184,119.271402 113.151184,119.271402 C113.151184,119.271402 117.486339,114.608379 119.198543,112.495446 C120.182149,111.25683 121.347905,109.799636 122.586521,108.160291 L122.586521,108.63388 C122.586521,114.20765 117.1949,117.959927 114.790528,119.489982 L114.790528,119.489982 L114.790528,119.489982 Z M141.457195,113.406193 C140.837887,112.969034 140.947177,111.51184 143.02368,106.958105 C143.825137,105.173042 145.71949,102.185792 148.961748,99.3078328 C149.326048,100.473588 149.581056,101.602914 149.544627,102.65938 C149.508197,109.690346 144.480874,112.313297 141.457195,113.406193 L141.457195,113.406193 L141.457195,113.406193 Z" id="Shape"></path>
        </g>
    </g>
</svg>