<?xml version="1.0" encoding="UTF-8" standalone="no"?>
<svg width="68px" height="150px" viewBox="0 0 68 150" version="1.1" xmlns="http://www.w3.org/2000/svg" xmlns:xlink="http://www.w3.org/1999/xlink">
    <!-- Generator: Sketch 39.1 (31720) - http://www.bohemiancoding.com/sketch -->
    <title>Group</title>
    <desc>Created with Sketch.</desc>
    <defs></defs>
    <g id="Page-1" stroke="none" stroke-width="1" fill="none" fill-rule="evenodd">
        <g id="Group">
            <path d="M52.2826855,145.42818 L53.7209364,121.462633 L57.6922261,114.683481 C57.6922261,114.683481 48.6535336,118.381007 33.5212898,118.381007 C18.3887809,118.381007 9.48710247,114.751855 9.48710247,114.751855 L13.9378092,122.146908 L15.5122792,145.42818 C15.5122792,147.924117 23.7434629,149.947261 33.8976148,149.947261 C44.0512367,149.947261 52.2826855,147.924117 52.2826855,145.42818" id="Shape" fill="#D34A47"></path>
            <path d="M47.7458481,33.5125442 L50.7646643,21.5801237 L67.4822438,3.98931095 L63.0760601,0.23639576 L45.3771201,18.975 L41.8719965,33.2310954 C39.3323322,33.1452297 36.6818905,33.0993816 33.9551237,33.0993816 C15.314841,33.0993816 0.203798587,35.2237633 0.203798587,37.8437279 C0.203798587,40.4639576 15.314841,42.5880742 33.9551237,42.5880742 C52.5951413,42.5880742 67.7059187,40.4639576 67.7059187,37.8437279 C67.7059187,35.9143993 59.5105124,34.2537986 47.7458481,33.5125442" id="Shape" fill="#D34A47"></path>
            <path d="M45.989841,40.1949647 C45.989841,40.1949647 45.3360424,40.3415194 43.4128092,40.349735 C41.4890459,40.3576855 40.1231449,40.3372792 39.5790636,39.8416961 C39.4327739,39.7086572 39.3527385,39.4444346 39.3535336,39.2655477 C39.3551237,38.925 39.5968198,38.7243816 39.9047703,38.5987633 L40.1960247,39.0556537 C40.0693463,39.0993816 39.9969965,39.1510601 39.9967314,39.2061837 C39.9956714,39.464841 41.9636926,39.6418728 43.4689929,39.6227915 C44.9745583,39.6042403 46.7936396,39.480212 46.7952297,39.225265 C46.7952297,39.1481449 46.6576855,39.07553 46.4183746,39.0182862 L46.7083039,38.564576 C47.0984099,38.685689 47.4389576,38.9196996 47.4381625,39.3246466 C47.4344523,40.0131625 46.5583039,40.1178445 45.989841,40.1949647" id="Shape" fill="#FFFFFF"></path>
            <path d="M67.4493816,4.02402827 C67.8696996,3.5385159 67.2318021,2.29664311 66.0246466,1.25061837 C64.8169611,0.205123675 63.4971731,-0.249116608 63.0760601,0.23639576 C62.655477,0.721908127 63.2936396,1.96378092 64.5013251,3.00927562 C65.7084806,4.05503534 67.0287986,4.50980565 67.4493816,4.02402827" id="Shape" fill="#D34A47"></path>
            <path d="M51.4786219,86.8900177 C51.0824205,83.0780035 59.8166078,77.5571555 57.5750883,77.3803887 C52.7496466,77.6562721 50.3480565,83.0353357 47.9202297,88.6690813 C47.0305654,90.7338339 43.9863074,99.5382509 41.9896643,98.4543286 C39.9935512,97.3709364 44.5775618,90.1309187 45.8623675,85.8312721 C44.3798587,86.9183746 38.9430212,91.1424912 37.5418728,87.1865724 C35.2892226,89.099735 30.4757067,90.1362191 31.0187279,85.110689 C29.820318,87.2334806 27.1306537,90.1971731 23.9022085,88.965636 C19.6624558,87.3487633 26.3589223,73.8431979 28.0240283,74.5245583 C29.6893993,75.2056537 27.6879859,78.2822438 27.1637809,79.4769435 C26.0109541,82.1061837 24.6792403,85.4114841 25.5689046,86.0880742 C27.0930212,87.2472615 31.2405477,81.7028269 31.3327739,81.5809187 C32.1084806,80.5560954 34.3184629,73.8514134 36.0996466,74.6212898 C37.8808304,75.3911661 31.6568905,84.2435512 33.9840106,86.0003534 C34.4533569,86.354947 36.3736749,85.7817138 37.5418728,84.5178445 C38.2977032,83.700265 38.0377208,81.8893993 40.5572438,75.8809187 C43.0767668,69.8727032 45.3222615,62.3901943 47.0501767,62.9602473 C48.7780919,63.5300353 47.3538869,67.3704064 46.7340106,68.8020318 C43.8251767,75.5212898 38.7951413,86.6220848 41.1673145,85.7817138 C43.5394876,84.9416078 44.774735,84.8923145 47.0976148,82.1740283 C49.4204947,79.455742 49.3134276,74.9782686 50.8616608,75.0734099 C52.410424,75.1688163 52.1504417,76.604417 51.7749117,77.6976148 C53.2987633,75.9537986 58.9982332,72.2811837 60.3742049,75.9185512 C62.0040636,80.2248233 52.2198763,86.445053 54.659364,86.1278269 C57.0378975,85.8185512 60.8912544,83.3780035 62.5364841,81.1590106 L67.065106,40.4454064 C67.065106,40.4454064 62.5081272,44.2166078 33.5167845,44.2166078 C4.52517668,44.2166078 0.439664311,40.5238516 0.439664311,40.5238516 L4.29514134,77.685689 C6.34160777,71.8693463 11.2012367,60.104682 18.8613074,60.4995583 C22.3457597,60.6792403 26.9973498,67.3886926 23.0128092,67.6160777 C21.3262367,67.7120141 21.1550353,64.2670495 19.1578622,63.7611307 C17.7166961,63.3959364 15.7102473,64.5675795 14.4135159,65.8370141 C11.8274735,68.3679329 6.2655477,78.3535336 7.0004417,83.3318905 C7.93674912,89.6787986 15.7587456,81.1264134 17.0822438,78.5872792 C18.014311,76.7986749 18.6439929,71.4993816 20.6825088,72.0553887 C22.7212898,72.6113958 20.504682,78.0803004 19.0269435,82.9155477 C17.3668728,88.3449647 16.4941696,94.0722615 14.4135159,93.4134276 C12.3325972,92.7551237 15.7221731,85.7459364 15.59947,84.5178445 C13.6436396,86.3223498 10.0404594,90.8907244 5.43074205,88.6295936 L7.82517668,111.706802 C7.82517668,111.706802 14.1890459,116.734982 33.359629,116.734982 C52.530212,116.734982 59.129682,111.785247 59.129682,111.785247 L62.1029152,85.0563604 C59.670318,87.4250883 51.9715548,91.6314488 51.4786219,86.8900177" id="Shape" fill="#D34A47"></path>
        </g>
    </g>
</svg>